# xmcd
#
# Track frame offsets: 
#        150
#        11556
#        21545
#        34466
#        43860
#        55469
#        67795
#        79219
#        88107
#        99660
#        110443
#        123204
#        136348
#        149623
#        161320
#        172576
#        183994
#        197490
#        208965
#        218547
#        230019
#        240342
#        253790
#        265460
#        276833
#
# Disc length: 3849 seconds
#
# Revision: 0
# Processed by: cddbd v1.5.2PL0 Copyright (c) Steve Scherf et al.
# Submitted via: ExactAudioCopyFreeDBPlugin 1.0
#
DISCID=6a0f0719
DTITLE=Various Artist - I Just Love Country - CD3
DYEAR=1900
DGENRE=Country
TTITLE0=Don Gibson - Oh Lonesome Me
TTITLE1=Johnny Cash - Ballad Of A Teenage Queen
TTITLE2=Marty Robbins - Devil Woman
TTITLE3=Jim Reeves - Billy Bayou
TTITLE4=Patsy Cline - Walking By Myself
TTITLE5=Skeets McDonald - Don't Let The Stars Get In Your Eyes
TTITLE6=Marty Robbins - The Story Of My Life
TTITLE7=Faron Young - Alone With You
TTITLE8=Ray Price - My Shoes Keep Walking Back To You
TTITLE9=Ferlin Husky - Gone
TTITLE10=Webb Pierce - Love, Love, Love
TTITLE11=Kitty Wells and Red Foley - One By One
TTITLE12=Hank Snow - I Don't Hurt Anymore
TTITLE13=Hank Williams - Kaw Liga
TTITLE14=Hank Locklin - Let Me Be The One
TTITLE15=Carl Smith - Hey Joe
TTITLE16=The Davis Sisters - I Forgot More Than You'll Ever Know
TTITLE17=Eddy Arnold - I Really Don't Want To Know
TTITLE18=Wanda Jackson - Let's Have A Party
TTITLE19=Kitty Wells - It Wasn't God Who Made Honky Tonk Angels
TTITLE20=Lefty Frizzell - Give Me More More More Of Your Kisses
TTITLE21=Pee Wee King - Slow Poke
TTITLE22=Tennessee Ernie Ford - The Shot Gun Boogie
TTITLE23=Red Sovine and Webb Pierce - Why Baby Why
TTITLE24=Johnny Horton - When It's Springtime in Alaska
EXTD=
EXTT0=
EXTT1=
EXTT2=
EXTT3=
EXTT4=
EXTT5=
EXTT6=
EXTT7=
EXTT8=
EXTT9=
EXTT10=
EXTT11=
EXTT12=
EXTT13=
EXTT14=
EXTT15=
EXTT16=
EXTT17=
EXTT18=
EXTT19=
EXTT20=
EXTT21=
EXTT22=
EXTT23=
EXTT24=
PLAYORDER=
